<mxfile host="Electron" modified="2024-09-28T13:13:31.394Z" agent="Mozilla/5.0 (Macintosh; Intel Mac OS X 10_15_7) AppleWebKit/537.36 (KHTML, like Gecko) draw.io/22.1.2 Chrome/114.0.5735.289 Electron/25.9.4 Safari/537.36" etag="uJ5wklxujpd-OYyjd_9t" version="22.1.2" type="device">
  <diagram name="Page-1" id="PU5at0qruYxNhP-q7vZB">
    <mxGraphModel dx="787" dy="574" grid="1" gridSize="10" guides="1" tooltips="1" connect="1" arrows="1" fold="1" page="1" pageScale="1" pageWidth="827" pageHeight="1169" math="0" shadow="0">
      <root>
        <mxCell id="0" />
        <mxCell id="1" parent="0" />
        <mxCell id="Vp6TtFTdUvDTBwigZ3BM-1" value="" style="verticalLabelPosition=bottom;sketch=0;aspect=fixed;html=1;verticalAlign=top;strokeColor=none;align=center;outlineConnect=0;shape=mxgraph.citrix.dns_server;" vertex="1" parent="1">
          <mxGeometry x="650" y="150" width="76.5" height="92.5" as="geometry" />
        </mxCell>
        <mxCell id="Vp6TtFTdUvDTBwigZ3BM-2" value="" style="verticalLabelPosition=bottom;sketch=0;aspect=fixed;html=1;verticalAlign=top;strokeColor=none;align=center;outlineConnect=0;shape=mxgraph.citrix.dns_server;" vertex="1" parent="1">
          <mxGeometry x="650" y="380" width="76.5" height="92.5" as="geometry" />
        </mxCell>
        <mxCell id="Vp6TtFTdUvDTBwigZ3BM-3" value="" style="verticalLabelPosition=bottom;sketch=0;aspect=fixed;html=1;verticalAlign=top;strokeColor=none;align=center;outlineConnect=0;shape=mxgraph.citrix.dns_server;" vertex="1" parent="1">
          <mxGeometry x="398.5" y="530" width="76.5" height="92.5" as="geometry" />
        </mxCell>
        <mxCell id="Vp6TtFTdUvDTBwigZ3BM-4" value="" style="verticalLabelPosition=bottom;sketch=0;aspect=fixed;html=1;verticalAlign=top;strokeColor=none;align=center;outlineConnect=0;shape=mxgraph.citrix.laptop_2;" vertex="1" parent="1">
          <mxGeometry x="100" y="340" width="156.23" height="116.5" as="geometry" />
        </mxCell>
        <mxCell id="Vp6TtFTdUvDTBwigZ3BM-5" value="&lt;font&gt;Je recherche &lt;br&gt;&lt;b&gt;windows.microsoft.com&lt;/b&gt;&lt;/font&gt;" style="text;html=1;align=center;verticalAlign=middle;resizable=0;points=[];autosize=1;strokeColor=none;fillColor=none;fontColor=#3399FF;" vertex="1" parent="1">
          <mxGeometry x="110" y="290" width="160" height="40" as="geometry" />
        </mxCell>
        <mxCell id="Vp6TtFTdUvDTBwigZ3BM-6" value="" style="edgeStyle=none;orthogonalLoop=1;jettySize=auto;html=1;rounded=0;" edge="1" parent="1">
          <mxGeometry width="100" relative="1" as="geometry">
            <mxPoint x="267.98" y="400" as="sourcePoint" />
            <mxPoint x="361.75" y="337.5" as="targetPoint" />
            <Array as="points" />
          </mxGeometry>
        </mxCell>
        <mxCell id="Vp6TtFTdUvDTBwigZ3BM-7" value="" style="verticalLabelPosition=bottom;sketch=0;aspect=fixed;html=1;verticalAlign=top;strokeColor=none;align=center;outlineConnect=0;shape=mxgraph.citrix.dns_server;" vertex="1" parent="1">
          <mxGeometry x="375" y="257.5" width="76.5" height="92.5" as="geometry" />
        </mxCell>
        <mxCell id="Vp6TtFTdUvDTBwigZ3BM-8" value="DNS du navigateur" style="text;html=1;align=center;verticalAlign=middle;resizable=0;points=[];autosize=1;strokeColor=none;fillColor=none;fontColor=#3399FF;" vertex="1" parent="1">
          <mxGeometry x="350" y="370" width="120" height="30" as="geometry" />
        </mxCell>
        <mxCell id="Vp6TtFTdUvDTBwigZ3BM-9" value="Je ne connais pas&amp;nbsp;&lt;br&gt;&lt;b&gt;windows.microsoft.com&lt;/b&gt;" style="text;html=1;align=center;verticalAlign=middle;resizable=0;points=[];autosize=1;strokeColor=none;fillColor=none;fontColor=#3399FF;" vertex="1" parent="1">
          <mxGeometry x="330" y="205" width="160" height="40" as="geometry" />
        </mxCell>
        <mxCell id="Vp6TtFTdUvDTBwigZ3BM-10" value="" style="edgeStyle=none;orthogonalLoop=1;jettySize=auto;html=1;rounded=0;fontColor=#80FF00;labelBorderColor=#80FF00;fillColor=#60a917;strokeColor=#2D7600;" edge="1" parent="1">
          <mxGeometry width="100" relative="1" as="geometry">
            <mxPoint x="460" y="302.5" as="sourcePoint" />
            <mxPoint x="630" y="230" as="targetPoint" />
            <Array as="points" />
          </mxGeometry>
        </mxCell>
        <mxCell id="Vp6TtFTdUvDTBwigZ3BM-11" value="&lt;font color=&quot;#33ff33&quot;&gt;Connais-tu&lt;br&gt;&lt;b&gt;windows.microsoft.com ?&lt;/b&gt;&lt;/font&gt;" style="text;html=1;align=center;verticalAlign=middle;resizable=0;points=[];autosize=1;strokeColor=none;fillColor=none;fontColor=#3399FF;rotation=-23;" vertex="1" parent="1">
          <mxGeometry x="450" y="220" width="170" height="40" as="geometry" />
        </mxCell>
        <mxCell id="Vp6TtFTdUvDTBwigZ3BM-13" value="" style="edgeStyle=none;orthogonalLoop=1;jettySize=auto;html=1;rounded=0;fontColor=#80FF00;labelBorderColor=#80FF00;fillColor=#a20025;strokeColor=#6F0000;endArrow=none;endFill=0;startArrow=openThin;startFill=0;" edge="1" parent="1">
          <mxGeometry width="100" relative="1" as="geometry">
            <mxPoint x="470" y="317.5" as="sourcePoint" />
            <mxPoint x="640" y="245" as="targetPoint" />
            <Array as="points" />
          </mxGeometry>
        </mxCell>
        <mxCell id="Vp6TtFTdUvDTBwigZ3BM-15" value="Serveur DNS .com" style="text;html=1;align=center;verticalAlign=middle;resizable=0;points=[];autosize=1;strokeColor=none;fillColor=none;fontColor=#3399FF;" vertex="1" parent="1">
          <mxGeometry x="620" y="240" width="120" height="30" as="geometry" />
        </mxCell>
        <mxCell id="Vp6TtFTdUvDTBwigZ3BM-16" value="&lt;font color=&quot;#ff0000&quot;&gt;Non, rapproche toi du serveur &lt;br&gt;&lt;b&gt;microsoft.com&lt;/b&gt;&lt;/font&gt;" style="text;html=1;align=center;verticalAlign=middle;resizable=0;points=[];autosize=1;strokeColor=none;fillColor=none;fontColor=#3399FF;rotation=-23;" vertex="1" parent="1">
          <mxGeometry x="475" y="283.75" width="180" height="40" as="geometry" />
        </mxCell>
        <mxCell id="Vp6TtFTdUvDTBwigZ3BM-17" value="" style="edgeStyle=none;orthogonalLoop=1;jettySize=auto;html=1;rounded=0;fontColor=#80FF00;labelBorderColor=#80FF00;fillColor=#60a917;strokeColor=#2D7600;" edge="1" parent="1">
          <mxGeometry width="100" relative="1" as="geometry">
            <mxPoint x="470" y="340" as="sourcePoint" />
            <mxPoint x="640" y="430" as="targetPoint" />
            <Array as="points" />
          </mxGeometry>
        </mxCell>
        <mxCell id="Vp6TtFTdUvDTBwigZ3BM-18" value="&lt;font color=&quot;#33ff33&quot;&gt;Connais-tu&lt;br&gt;&lt;b&gt;windows.microsoft.com ?&lt;/b&gt;&lt;/font&gt;" style="text;html=1;align=center;verticalAlign=middle;resizable=0;points=[];autosize=1;strokeColor=none;fillColor=none;fontColor=#3399FF;rotation=30;" vertex="1" parent="1">
          <mxGeometry x="485" y="350" width="170" height="40" as="geometry" />
        </mxCell>
        <mxCell id="Vp6TtFTdUvDTBwigZ3BM-19" value="Serveur DNS &lt;br&gt;microsoft.com" style="text;html=1;align=center;verticalAlign=middle;resizable=0;points=[];autosize=1;strokeColor=none;fillColor=none;fontColor=#3399FF;" vertex="1" parent="1">
          <mxGeometry x="638.25" y="467.5" width="100" height="40" as="geometry" />
        </mxCell>
        <mxCell id="Vp6TtFTdUvDTBwigZ3BM-20" value="" style="edgeStyle=none;orthogonalLoop=1;jettySize=auto;html=1;rounded=0;fontColor=#80FF00;labelBorderColor=#80FF00;fillColor=#a20025;strokeColor=#6F0000;endArrow=none;endFill=0;startArrow=openThin;startFill=0;entryX=0.96;entryY=-0.011;entryDx=0;entryDy=0;entryPerimeter=0;" edge="1" parent="1" target="Vp6TtFTdUvDTBwigZ3BM-21">
          <mxGeometry width="100" relative="1" as="geometry">
            <mxPoint x="460" y="350" as="sourcePoint" />
            <mxPoint x="630" y="442" as="targetPoint" />
            <Array as="points" />
          </mxGeometry>
        </mxCell>
        <mxCell id="Vp6TtFTdUvDTBwigZ3BM-21" value="&lt;font color=&quot;#cc0000&quot;&gt;Le serveur &lt;b&gt;DNS&amp;nbsp;123.145.167.189&lt;/b&gt;&lt;br&gt;le connaÃ®t !&amp;nbsp;&lt;/font&gt;" style="text;html=1;align=center;verticalAlign=middle;resizable=0;points=[];autosize=1;strokeColor=none;fillColor=none;fontColor=#3399FF;rotation=30;" vertex="1" parent="1">
          <mxGeometry x="450" y="400" width="200" height="40" as="geometry" />
        </mxCell>
        <mxCell id="Vp6TtFTdUvDTBwigZ3BM-22" value="" style="edgeStyle=none;orthogonalLoop=1;jettySize=auto;html=1;rounded=0;fontColor=#80FF00;labelBorderColor=#80FF00;fillColor=#60a917;strokeColor=#2D7600;" edge="1" parent="1">
          <mxGeometry width="100" relative="1" as="geometry">
            <mxPoint x="430" y="400" as="sourcePoint" />
            <mxPoint x="430" y="522.5" as="targetPoint" />
            <Array as="points" />
          </mxGeometry>
        </mxCell>
        <mxCell id="Vp6TtFTdUvDTBwigZ3BM-23" value="&lt;font color=&quot;#33ff33&quot;&gt;Connais-tu&lt;br&gt;&lt;b&gt;windows.microsoft.com ?&lt;/b&gt;&lt;/font&gt;" style="text;html=1;align=center;verticalAlign=middle;resizable=0;points=[];autosize=1;strokeColor=none;fillColor=none;fontColor=#3399FF;rotation=0;" vertex="1" parent="1">
          <mxGeometry x="420" y="456.5" width="170" height="40" as="geometry" />
        </mxCell>
        <mxCell id="Vp6TtFTdUvDTBwigZ3BM-24" value="&lt;span style=&quot;font-family: Helvetica; font-size: 12px; font-style: normal; font-variant-ligatures: normal; font-variant-caps: normal; font-weight: 400; letter-spacing: normal; orphans: 2; text-indent: 0px; text-transform: none; widows: 2; word-spacing: 0px; -webkit-text-stroke-width: 0px; text-decoration-thickness: initial; text-decoration-style: initial; text-decoration-color: initial; float: none; display: inline !important;&quot;&gt;&lt;font color=&quot;#3399ff&quot;&gt;Serveur DNS 123.145.167.189&lt;/font&gt;&lt;/span&gt;" style="text;whiteSpace=wrap;html=1;align=center;labelBackgroundColor=none;" vertex="1" parent="1">
          <mxGeometry x="361.75" y="622.5" width="150" height="40" as="geometry" />
        </mxCell>
        <mxCell id="Vp6TtFTdUvDTBwigZ3BM-25" value="" style="edgeStyle=none;orthogonalLoop=1;jettySize=auto;html=1;rounded=0;fontColor=#80FF00;labelBorderColor=#80FF00;fillColor=#f0a30a;strokeColor=#BD7000;startArrow=block;startFill=1;endArrow=none;endFill=0;" edge="1" parent="1">
          <mxGeometry width="100" relative="1" as="geometry">
            <mxPoint x="409.64" y="400" as="sourcePoint" />
            <mxPoint x="409.64" y="522.5" as="targetPoint" />
            <Array as="points" />
          </mxGeometry>
        </mxCell>
        <mxCell id="Vp6TtFTdUvDTBwigZ3BM-26" value="Oui, voici son adresse&lt;br&gt;&lt;b&gt;93.42.143.195&lt;/b&gt;" style="edgeLabel;html=1;align=center;verticalAlign=middle;resizable=0;points=[];fontColor=#FFB570;labelBackgroundColor=none;" vertex="1" connectable="0" parent="Vp6TtFTdUvDTBwigZ3BM-25">
          <mxGeometry x="0.6303" y="-3" relative="1" as="geometry">
            <mxPoint x="-57" y="-12" as="offset" />
          </mxGeometry>
        </mxCell>
        <mxCell id="Vp6TtFTdUvDTBwigZ3BM-27" value="" style="edgeStyle=none;orthogonalLoop=1;jettySize=auto;html=1;rounded=0;startArrow=open;startFill=0;endArrow=none;endFill=0;fillColor=#60a917;strokeColor=#2D7600;" edge="1" parent="1">
          <mxGeometry width="100" relative="1" as="geometry">
            <mxPoint x="270" y="416.25" as="sourcePoint" />
            <mxPoint x="363.77" y="353.75" as="targetPoint" />
            <Array as="points" />
          </mxGeometry>
        </mxCell>
        <mxCell id="Vp6TtFTdUvDTBwigZ3BM-28" value="&lt;b style=&quot;&quot;&gt;L&#39;adresse est&lt;br&gt;93.42.143.195&lt;/b&gt;" style="edgeLabel;html=1;align=center;verticalAlign=middle;resizable=0;points=[];fontColor=#80FF00;labelBackgroundColor=none;" vertex="1" connectable="0" parent="Vp6TtFTdUvDTBwigZ3BM-27">
          <mxGeometry x="-0.127" y="-2" relative="1" as="geometry">
            <mxPoint x="18" y="29" as="offset" />
          </mxGeometry>
        </mxCell>
      </root>
    </mxGraphModel>
  </diagram>
</mxfile>
